# This file uses centimeters as units for non-parametric coordinates.

mtllib Block_Red_Medium.mtl
g default
v -1.000000 -0.450005 0.450005
v -0.950005 -0.500000 0.450005
v -0.950005 -0.450005 0.500000
v 0.950005 -0.500000 0.450005
v 1.000000 -0.450005 0.450005
v 0.950005 -0.450005 0.500000
v -0.950005 0.500000 0.450005
v -1.000000 0.450005 0.450005
v -0.950005 0.450005 0.500000
v 1.000000 0.450005 0.450005
v 0.950005 0.500000 0.450005
v 0.950005 0.450005 0.500000
v -0.950005 0.450005 -0.500000
v -1.000000 0.450005 -0.450005
v -0.950005 0.500000 -0.450005
v 1.000000 0.450005 -0.450005
v 0.950005 0.450005 -0.500000
v 0.950005 0.500000 -0.450005
v -0.950005 -0.500000 -0.450005
v -1.000000 -0.450005 -0.450005
v -0.950005 -0.450005 -0.500000
v 1.000000 -0.450005 -0.450005
v 0.950005 -0.500000 -0.450005
v 0.950005 -0.450005 -0.500000
vt 0.381249 0.762499
vt 0.618751 0.987501
vt 0.362501 0.237501
vt 0.137499 0.237501
vt 0.137499 0.012499
vt 0.362501 0.012499
vt 0.862501 0.012499
vt 0.862501 0.237501
vt 0.637499 0.237501
vt 0.637499 0.012499
vt 0.381249 0.262499
vt 0.381249 0.512499
vt 0.381249 0.987501
vt 0.375000 0.987501
vt 0.375000 0.762499
vt 0.375000 0.012499
vt 0.375000 0.237501
vt 0.625000 0.987501
vt 0.618751 0.762499
vt 0.625000 0.762499
vt 0.618751 0.012499
vt 0.375000 0.262499
vt 0.375000 0.487501
vt 0.381249 0.250000
vt 0.618751 0.237501
vt 0.618751 0.250000
vt 0.618751 0.262499
vt 0.625000 0.262499
vt 0.375000 0.512499
vt 0.381249 0.500000
vt 0.618751 0.487501
vt 0.618751 0.500000
vt 0.618751 0.512499
vt 0.625000 0.512499
vt 0.625000 0.737501
vt 0.381249 0.750000
vt 0.618751 0.737501
vt 0.381249 -0.000000
vt 0.381249 0.012499
vt 0.618751 0.000000
vt 0.625000 0.012499
vt 0.381249 0.237501
vt 0.625000 0.237501
vt 0.381249 0.487501
vt 0.625000 0.487501
vt 0.375000 0.737501
vt 0.381249 0.737501
vt 0.618751 0.750000
vn 0.000000 -1.000000 0.000000
vn 0.000000 -1.000000 0.000000
vn 0.000000 -1.000000 0.000000
vn 0.000000 -1.000000 0.000000
vn 0.000000 0.000000 1.000000
vn 0.000000 0.000000 1.000000
vn 0.000000 0.000000 1.000000
vn 0.000000 0.000000 1.000000
vn -1.000000 0.000000 0.000000
vn -1.000000 0.000000 0.000000
vn -1.000000 0.000000 0.000000
vn -1.000000 0.000000 0.000000
vn 1.000000 0.000000 0.000000
vn 1.000000 0.000000 0.000000
vn 1.000000 0.000000 0.000000
vn 1.000000 0.000000 0.000000
vn 0.000000 1.000000 0.000000
vn 0.000000 1.000000 0.000000
vn 0.000000 1.000000 0.000000
vn 0.000000 1.000000 0.000000
vn 0.000000 0.000000 -1.000000
vn 0.000000 0.000000 -1.000000
vn 0.000000 0.000000 -1.000000
vn 0.000000 0.000000 -1.000000
vn -0.707106 -0.707108 0.000000
vn -0.707106 -0.707108 0.000000
vn -0.707107 -0.707106 0.000000
vn -0.707108 -0.707106 0.000000
vn 0.000000 -0.707107 0.707107
vn 0.000000 -0.707106 0.707107
vn 0.000000 -0.707107 0.707107
vn 0.000000 -0.707107 0.707107
vn -0.707106 0.000000 0.707107
vn -0.707107 0.000000 0.707107
vn -0.707107 0.000000 0.707107
vn -0.707107 0.000000 0.707107
vn 0.707108 -0.707106 0.000000
vn 0.707107 -0.707106 0.000000
vn 0.707106 -0.707108 0.000000
vn 0.707106 -0.707108 0.000000
vn 0.707107 0.000000 0.707107
vn 0.707107 0.000000 0.707107
vn 0.707107 0.000000 0.707107
vn 0.707106 0.000000 0.707107
vn -0.707108 0.707106 0.000000
vn -0.707107 0.707106 0.000000
vn -0.707106 0.707108 0.000000
vn -0.707106 0.707108 0.000000
vn 0.000000 0.707107 0.707107
vn 0.000000 0.707107 0.707107
vn 0.000000 0.707106 0.707107
vn 0.000000 0.707107 0.707107
vn 0.707106 0.707108 0.000000
vn 0.707106 0.707108 0.000000
vn 0.707107 0.707106 0.000000
vn 0.707108 0.707106 0.000000
vn -0.707106 0.000000 -0.707107
vn -0.707107 0.000000 -0.707107
vn -0.707107 0.000000 -0.707107
vn -0.707107 0.000000 -0.707107
vn 0.000000 0.707107 -0.707107
vn 0.000000 0.707106 -0.707107
vn 0.000000 0.707107 -0.707107
vn 0.000000 0.707107 -0.707107
vn 0.707107 0.000000 -0.707107
vn 0.707107 0.000000 -0.707107
vn 0.707107 0.000000 -0.707107
vn 0.707106 0.000000 -0.707107
vn 0.000000 -0.707107 -0.707107
vn 0.000000 -0.707107 -0.707107
vn 0.000000 -0.707106 -0.707107
vn 0.000000 -0.707107 -0.707107
vn -0.577350 -0.577351 0.577350
vn -0.577350 -0.577351 0.577350
vn -0.577350 -0.577351 0.577350
vn 0.577350 -0.577351 0.577350
vn 0.577350 -0.577351 0.577350
vn 0.577350 -0.577351 0.577350
vn -0.577350 0.577351 0.577350
vn -0.577350 0.577351 0.577350
vn -0.577350 0.577351 0.577350
vn 0.577350 0.577351 0.577350
vn 0.577350 0.577351 0.577350
vn 0.577350 0.577351 0.577350
vn -0.577350 0.577351 -0.577350
vn -0.577350 0.577351 -0.577350
vn -0.577350 0.577351 -0.577350
vn 0.577350 0.577351 -0.577350
vn 0.577350 0.577351 -0.577350
vn 0.577350 0.577351 -0.577350
vn -0.577350 -0.577351 -0.577350
vn -0.577350 -0.577351 -0.577350
vn -0.577350 -0.577351 -0.577350
vn 0.577350 -0.577351 -0.577350
vn 0.577350 -0.577351 -0.577350
vn 0.577350 -0.577351 -0.577350
s 1
usemtl initialShadingGroup
f 19/1/1 23/19/2 2/13/3
f 2/13/3 23/19/2 4/2/4
s 2
f 6/21/5 12/25/6 3/39/7
f 3/39/7 12/25/6 9/42/8
s 3
f 8/3/9 14/4/10 1/6/11
f 1/6/11 14/4/10 20/5/12
s 4
f 22/7/13 16/8/14 5/10/15
f 5/10/15 16/8/14 10/9/16
s 5
f 11/27/17 18/31/18 7/11/19
f 7/11/19 18/31/18 15/44/20
s 6
f 17/33/21 24/37/22 13/12/23
f 13/12/23 24/37/22 21/47/24
s 7
f 2/13/25 1/14/26 19/1/27
f 19/1/27 1/14/26 20/15/28
s 8
f 3/39/29 2/38/30 6/21/31
f 6/21/31 2/38/30 4/40/32
s 9
f 1/16/33 3/39/34 8/17/35
f 8/17/35 3/39/34 9/42/36
s 10
f 5/18/37 4/2/38 22/20/39
f 22/20/39 4/2/38 23/19/40
s 11
f 6/21/41 5/41/42 12/25/43
f 12/25/43 5/41/42 10/43/44
s 12
f 8/22/45 7/11/46 14/23/47
f 14/23/47 7/11/46 15/44/48
s 13
f 7/24/49 9/42/50 11/26/51
f 11/26/51 9/42/50 12/25/52
s 14
f 11/27/53 10/28/54 18/31/55
f 18/31/55 10/28/54 16/45/56
s 15
f 14/29/57 13/12/58 20/46/59
f 20/46/59 13/12/58 21/47/60
s 16
f 13/30/61 15/44/62 17/32/63
f 17/32/63 15/44/62 18/31/64
s 17
f 17/33/65 16/34/66 24/37/67
f 24/37/67 16/34/66 22/35/68
s 18
f 19/36/69 21/47/70 23/48/71
f 23/48/71 21/47/70 24/37/72
s off
f 1/16/73 2/38/74 3/39/75
f 4/40/76 5/41/77 6/21/78
f 7/24/79 8/17/80 9/42/81
f 10/43/82 11/26/83 12/25/84
f 13/30/85 14/23/86 15/44/87
f 16/45/88 17/32/89 18/31/90
f 19/36/91 20/46/92 21/47/93
f 22/35/94 23/48/95 24/37/96
