# This file uses centimeters as units for non-parametric coordinates.
mtllib Pad_Edge.mtl
g default
v 0.000000 0.475528 0.154509
v 0.000000 0.404509 0.293893
v 0.000000 0.293893 0.404509
v 0.000000 0.154509 0.475529
v 0.000000 -0.000000 0.500000
v 0.000000 -0.154509 0.475528
v 0.000000 -0.293893 0.404509
v 0.000000 -0.404509 0.293893
v 0.000000 -0.475528 0.154509
v 0.000000 -0.500000 -0.000000
v 0.000000 -0.475528 -0.154509
v 0.000000 -0.404509 -0.293893
v 0.000000 -0.293893 -0.404509
v 0.000000 -0.154509 -0.475528
v 0.000000 -0.000000 -0.500000
v 0.000000 0.154508 -0.475528
v 0.000000 0.293893 -0.404509
v 0.000000 0.404509 -0.293893
v 0.000000 0.475528 -0.154509
v 0.000000 0.500000 -0.000000
v -0.146946 -0.475528 0.047746
v -0.125000 -0.475528 0.090818
v -0.090818 -0.475528 0.125000
v -0.047746 -0.475528 0.146946
v -0.047746 -0.475528 -0.146946
v -0.090818 -0.475528 -0.125000
v -0.125000 -0.475528 -0.090818
v -0.146946 -0.475528 -0.047746
v -0.154508 -0.475528 0.000000
v -0.279509 -0.404509 0.090818
v -0.237764 -0.404509 0.172746
v -0.172746 -0.404509 0.237764
v -0.090818 -0.404509 0.279509
v -0.090818 -0.404509 -0.279509
v -0.172746 -0.404509 -0.237764
v -0.237764 -0.404509 -0.172746
v -0.279508 -0.404509 -0.090818
v -0.293893 -0.404509 0.000000
v -0.384711 -0.293893 0.125000
v -0.327254 -0.293893 0.237764
v -0.237764 -0.293893 0.327254
v -0.125000 -0.293893 0.384711
v -0.125000 -0.293893 -0.384710
v -0.237764 -0.293893 -0.327254
v -0.327254 -0.293893 -0.237764
v -0.384710 -0.293893 -0.125000
v -0.404508 -0.293893 0.000000
v -0.452255 -0.154508 0.146946
v -0.384711 -0.154508 0.279509
v -0.279509 -0.154508 0.384711
v -0.146946 -0.154508 0.452254
v -0.146946 -0.154508 -0.452254
v -0.279508 -0.154508 -0.384710
v -0.384710 -0.154508 -0.279509
v -0.452254 -0.154508 -0.146946
v -0.475528 -0.154508 0.000000
v -0.475529 0.000000 0.154509
v -0.404509 0.000000 0.293893
v -0.293893 0.000000 0.404509
v -0.154509 0.000000 0.475528
v -0.154508 0.000000 -0.475528
v -0.293893 0.000000 -0.404509
v -0.404508 0.000000 -0.293893
v -0.475528 0.000000 -0.154509
v -0.500000 0.000000 0.000000
v -0.452255 0.154508 0.146946
v -0.384711 0.154508 0.279509
v -0.279509 0.154508 0.384711
v -0.146946 0.154508 0.452254
v -0.146946 0.154508 -0.452254
v -0.279508 0.154508 -0.384710
v -0.384710 0.154508 -0.279509
v -0.452254 0.154508 -0.146946
v -0.475528 0.154508 0.000000
v -0.384711 0.293893 0.125000
v -0.327254 0.293893 0.237764
v -0.237764 0.293893 0.327254
v -0.125000 0.293893 0.384711
v -0.125000 0.293893 -0.384710
v -0.237764 0.293893 -0.327254
v -0.327254 0.293893 -0.237764
v -0.384710 0.293893 -0.125000
v -0.404508 0.293893 0.000000
v -0.279509 0.404509 0.090818
v -0.237764 0.404509 0.172746
v -0.172746 0.404509 0.237764
v -0.090818 0.404509 0.279509
v -0.090818 0.404509 -0.279509
v -0.172746 0.404509 -0.237764
v -0.237764 0.404509 -0.172746
v -0.279508 0.404509 -0.090818
v -0.293893 0.404509 0.000000
v -0.146946 0.475528 0.047746
v -0.125000 0.475528 0.090818
v -0.090818 0.475528 0.125000
v -0.047746 0.475528 0.146946
v -0.047746 0.475528 -0.146946
v -0.090818 0.475528 -0.125000
v -0.125000 0.475528 -0.090818
v -0.146946 0.475528 -0.047746
v -0.154508 0.475528 0.000000
vt 0.785534 0.104902
vt 0.834921 0.104902
vt 0.834921 0.203676
vt 0.785534 0.203676
vt 0.884308 0.104902
vt 0.884308 0.203676
vt 0.933696 0.104902
vt 0.933696 0.203676
vt 0.983083 0.104902
vt 0.983083 0.203676
vt 0.489210 0.104902
vt 0.538597 0.104902
vt 0.538597 0.203676
vt 0.489210 0.203676
vt 0.587985 0.104902
vt 0.587985 0.203676
vt 0.637372 0.104902
vt 0.637372 0.203676
vt 0.686759 0.104902
vt 0.686759 0.203676
vt 0.736146 0.104902
vt 0.736146 0.203676
vt 0.834921 0.302451
vt 0.785534 0.302451
vt 0.884308 0.302451
vt 0.933696 0.302451
vt 0.983083 0.302451
vt 0.538597 0.302451
vt 0.489210 0.302451
vt 0.587985 0.302451
vt 0.637372 0.302451
vt 0.686759 0.302451
vt 0.736146 0.302451
vt 0.834921 0.401226
vt 0.785534 0.401226
vt 0.884308 0.401226
vt 0.933696 0.401226
vt 0.983083 0.401225
vt 0.538597 0.401225
vt 0.489210 0.401225
vt 0.587985 0.401225
vt 0.637372 0.401225
vt 0.686759 0.401225
vt 0.736146 0.401225
vt 0.834921 0.500000
vt 0.785534 0.500000
vt 0.884308 0.500000
vt 0.933696 0.500000
vt 0.983083 0.500000
vt 0.538597 0.500000
vt 0.489210 0.500000
vt 0.587985 0.500000
vt 0.637372 0.500000
vt 0.686759 0.500000
vt 0.736146 0.500000
vt 0.834921 0.598774
vt 0.785534 0.598774
vt 0.884308 0.598774
vt 0.933696 0.598774
vt 0.983083 0.598775
vt 0.538597 0.598775
vt 0.489210 0.598775
vt 0.587985 0.598775
vt 0.637372 0.598775
vt 0.686759 0.598775
vt 0.736146 0.598775
vt 0.834921 0.697549
vt 0.785534 0.697549
vt 0.884308 0.697549
vt 0.933696 0.697549
vt 0.983083 0.697549
vt 0.538597 0.697549
vt 0.489210 0.697549
vt 0.587985 0.697549
vt 0.637372 0.697549
vt 0.686759 0.697549
vt 0.736146 0.697549
vt 0.834921 0.796324
vt 0.785534 0.796324
vt 0.884308 0.796324
vt 0.933696 0.796324
vt 0.983083 0.796324
vt 0.538597 0.796324
vt 0.489210 0.796324
vt 0.587985 0.796324
vt 0.637372 0.796324
vt 0.686759 0.796324
vt 0.736146 0.796324
vt 0.834921 0.895098
vt 0.785534 0.895098
vt 0.884308 0.895098
vt 0.933696 0.895098
vt 0.983083 0.895098
vt 0.538597 0.895098
vt 0.489210 0.895098
vt 0.587985 0.895098
vt 0.637372 0.895098
vt 0.686759 0.895098
vt 0.736146 0.895098
vt 0.731939 0.006127
vt 0.731939 0.993873
vn -0.318775 -0.942771 0.097807
vn -0.272948 -0.942771 0.191527
vn -0.578246 -0.795496 0.181154
vn -0.493965 -0.795496 0.350977
vn -0.200404 -0.942771 0.266499
vn -0.361331 -0.795496 0.486442
vn -0.108243 -0.942771 0.315384
vn -0.193327 -0.795496 0.574291
vn -0.054112 -0.938271 0.341642
vn -0.095761 -0.790746 0.604608
vn -0.051123 -0.945096 -0.322771
vn -0.097809 -0.942771 -0.318774
vn -0.095273 -0.793154 -0.601523
vn -0.181155 -0.795496 -0.578246
vn -0.191528 -0.942771 -0.272948
vn -0.350976 -0.795496 -0.493965
vn -0.266499 -0.942771 -0.200404
vn -0.486442 -0.795496 -0.361331
vn -0.315384 -0.942771 -0.108242
vn -0.574291 -0.795496 -0.193327
vn -0.333397 -0.942771 -0.005486
vn -0.605925 -0.795496 -0.006400
vn -0.780208 -0.574476 0.247494
vn -0.665541 -0.574476 0.476479
vn -0.485727 -0.574476 0.658822
vn -0.258367 -0.574476 0.776675
vn -0.128507 -0.570244 0.811362
vn -0.128627 -0.569142 -0.812116
vn -0.247495 -0.574476 -0.780208
vn -0.476479 -0.574476 -0.665541
vn -0.658822 -0.574476 -0.485727
vn -0.776675 -0.574476 -0.258367
vn -0.818502 -0.574476 -0.005716
vn -0.908000 -0.300913 0.291527
vn -0.773472 -0.300913 0.557847
vn -0.563231 -0.300913 0.769560
vn -0.297857 -0.300912 0.905943
vn -0.149275 -0.299060 0.942486
vn -0.149427 -0.295947 -0.943444
vn -0.291528 -0.300912 -0.908000
vn -0.557847 -0.300912 -0.773472
vn -0.769560 -0.300912 -0.563231
vn -0.905943 -0.300912 -0.297857
vn -0.953646 -0.300912 -0.003328
vn -0.951057 0.000000 0.309016
vn -0.809017 0.000000 0.587785
vn -0.587785 0.000000 0.809017
vn -0.309017 0.000000 0.951057
vn -0.156434 -0.001876 0.987687
vn -0.156435 0.001876 -0.987687
vn -0.309017 0.000000 -0.951057
vn -0.587785 0.000000 -0.809017
vn -0.809017 0.000000 -0.587785
vn -0.951056 0.000000 -0.309017
vn -1.000000 0.000000 -0.000001
vn -0.905943 0.300912 0.297857
vn -0.769560 0.300912 0.563231
vn -0.557847 0.300913 0.773472
vn -0.291528 0.300912 0.908000
vn -0.149427 0.295947 0.943444
vn -0.149275 0.299060 -0.942486
vn -0.297857 0.300912 -0.905943
vn -0.563231 0.300912 -0.769560
vn -0.773472 0.300912 -0.557847
vn -0.908000 0.300912 -0.291528
vn -0.953646 0.300912 0.003327
vn -0.776676 0.574476 0.258366
vn -0.658822 0.574476 0.485727
vn -0.476479 0.574476 0.665541
vn -0.247495 0.574476 0.780208
vn -0.128627 0.569142 0.812116
vn -0.128507 0.570244 -0.811362
vn -0.258367 0.574476 -0.776675
vn -0.485727 0.574476 -0.658822
vn -0.665541 0.574476 -0.476479
vn -0.780208 0.574476 -0.247495
vn -0.818502 0.574476 0.005715
vn -0.574291 0.795496 0.193327
vn -0.486442 0.795496 0.361331
vn -0.350976 0.795496 0.493965
vn -0.181155 0.795496 0.578246
vn -0.095273 0.793154 0.601523
vn -0.095761 0.790745 -0.604609
vn -0.193327 0.795496 -0.574291
vn -0.361331 0.795496 -0.486442
vn -0.493965 0.795496 -0.350976
vn -0.578246 0.795496 -0.181155
vn -0.605925 0.795496 0.006399
vn -0.315384 0.942771 0.108242
vn -0.266499 0.942771 0.200404
vn -0.191528 0.942771 0.272948
vn -0.097809 0.942771 0.318774
vn -0.051125 0.945096 0.322770
vn -0.054111 0.938271 -0.341642
vn -0.108242 0.942771 -0.315384
vn -0.200404 0.942771 -0.266499
vn -0.272948 0.942771 -0.191527
vn -0.318774 0.942771 -0.097808
vn -0.333397 0.942771 0.005486
vn -0.101975 -0.994787 0.000000
vn -0.101974 0.994787 0.000000
usemtl initialShadingGroup
f 21/1/1 22/2/2 30/4/3
f 30/4/3 22/2/2 31/3/4
f 22/2/2 23/5/5 31/3/4
f 31/3/4 23/5/5 32/6/6
f 23/5/5 24/7/7 32/6/6
f 32/6/6 24/7/7 33/8/8
f 24/7/7 9/9/9 33/8/8
f 33/8/8 9/9/9 8/10/10
f 11/11/11 25/12/12 12/14/13
f 12/14/13 25/12/12 34/13/14
f 25/12/12 26/15/15 34/13/14
f 34/13/14 26/15/15 35/16/16
f 26/15/15 27/17/17 35/16/16
f 35/16/16 27/17/17 36/18/18
f 27/17/17 28/19/19 36/18/18
f 36/18/18 28/19/19 37/20/20
f 28/19/19 29/21/21 37/20/20
f 37/20/20 29/21/21 38/22/22
f 29/21/21 21/1/1 38/22/22
f 38/22/22 21/1/1 30/4/3
f 30/4/3 31/3/4 39/24/23
f 39/24/23 31/3/4 40/23/24
f 31/3/4 32/6/6 40/23/24
f 40/23/24 32/6/6 41/25/25
f 32/6/6 33/8/8 41/25/25
f 41/25/25 33/8/8 42/26/26
f 33/8/8 8/10/10 42/26/26
f 42/26/26 8/10/10 7/27/27
f 12/14/13 34/13/14 13/29/28
f 13/29/28 34/13/14 43/28/29
f 34/13/14 35/16/16 43/28/29
f 43/28/29 35/16/16 44/30/30
f 35/16/16 36/18/18 44/30/30
f 44/30/30 36/18/18 45/31/31
f 36/18/18 37/20/20 45/31/31
f 45/31/31 37/20/20 46/32/32
f 37/20/20 38/22/22 46/32/32
f 46/32/32 38/22/22 47/33/33
f 38/22/22 30/4/3 47/33/33
f 47/33/33 30/4/3 39/24/23
f 39/24/23 40/23/24 48/35/34
f 48/35/34 40/23/24 49/34/35
f 40/23/24 41/25/25 49/34/35
f 49/34/35 41/25/25 50/36/36
f 41/25/25 42/26/26 50/36/36
f 50/36/36 42/26/26 51/37/37
f 42/26/26 7/27/27 51/37/37
f 51/37/37 7/27/27 6/38/38
f 13/29/28 43/28/29 14/40/39
f 14/40/39 43/28/29 52/39/40
f 43/28/29 44/30/30 52/39/40
f 52/39/40 44/30/30 53/41/41
f 44/30/30 45/31/31 53/41/41
f 53/41/41 45/31/31 54/42/42
f 45/31/31 46/32/32 54/42/42
f 54/42/42 46/32/32 55/43/43
f 46/32/32 47/33/33 55/43/43
f 55/43/43 47/33/33 56/44/44
f 47/33/33 39/24/23 56/44/44
f 56/44/44 39/24/23 48/35/34
f 48/35/34 49/34/35 57/46/45
f 57/46/45 49/34/35 58/45/46
f 49/34/35 50/36/36 58/45/46
f 58/45/46 50/36/36 59/47/47
f 50/36/36 51/37/37 59/47/47
f 59/47/47 51/37/37 60/48/48
f 51/37/37 6/38/38 60/48/48
f 60/48/48 6/38/38 5/49/49
f 14/40/39 52/39/40 15/51/50
f 15/51/50 52/39/40 61/50/51
f 52/39/40 53/41/41 61/50/51
f 61/50/51 53/41/41 62/52/52
f 53/41/41 54/42/42 62/52/52
f 62/52/52 54/42/42 63/53/53
f 54/42/42 55/43/43 63/53/53
f 63/53/53 55/43/43 64/54/54
f 55/43/43 56/44/44 64/54/54
f 64/54/54 56/44/44 65/55/55
f 56/44/44 48/35/34 65/55/55
f 65/55/55 48/35/34 57/46/45
f 57/46/45 58/45/46 66/57/56
f 66/57/56 58/45/46 67/56/57
f 58/45/46 59/47/47 67/56/57
f 67/56/57 59/47/47 68/58/58
f 59/47/47 60/48/48 68/58/58
f 68/58/58 60/48/48 69/59/59
f 60/48/48 5/49/49 69/59/59
f 69/59/59 5/49/49 4/60/60
f 15/51/50 61/50/51 16/62/61
f 16/62/61 61/50/51 70/61/62
f 61/50/51 62/52/52 70/61/62
f 70/61/62 62/52/52 71/63/63
f 62/52/52 63/53/53 71/63/63
f 71/63/63 63/53/53 72/64/64
f 63/53/53 64/54/54 72/64/64
f 72/64/64 64/54/54 73/65/65
f 64/54/54 65/55/55 73/65/65
f 73/65/65 65/55/55 74/66/66
f 65/55/55 57/46/45 74/66/66
f 74/66/66 57/46/45 66/57/56
f 66/57/56 67/56/57 75/68/67
f 75/68/67 67/56/57 76/67/68
f 67/56/57 68/58/58 76/67/68
f 76/67/68 68/58/58 77/69/69
f 68/58/58 69/59/59 77/69/69
f 77/69/69 69/59/59 78/70/70
f 69/59/59 4/60/60 78/70/70
f 78/70/70 4/60/60 3/71/71
f 16/62/61 70/61/62 17/73/72
f 17/73/72 70/61/62 79/72/73
f 70/61/62 71/63/63 79/72/73
f 79/72/73 71/63/63 80/74/74
f 71/63/63 72/64/64 80/74/74
f 80/74/74 72/64/64 81/75/75
f 72/64/64 73/65/65 81/75/75
f 81/75/75 73/65/65 82/76/76
f 73/65/65 74/66/66 82/76/76
f 82/76/76 74/66/66 83/77/77
f 74/66/66 66/57/56 83/77/77
f 83/77/77 66/57/56 75/68/67
f 75/68/67 76/67/68 84/79/78
f 84/79/78 76/67/68 85/78/79
f 76/67/68 77/69/69 85/78/79
f 85/78/79 77/69/69 86/80/80
f 77/69/69 78/70/70 86/80/80
f 86/80/80 78/70/70 87/81/81
f 78/70/70 3/71/71 87/81/81
f 87/81/81 3/71/71 2/82/82
f 17/73/72 79/72/73 18/84/83
f 18/84/83 79/72/73 88/83/84
f 79/72/73 80/74/74 88/83/84
f 88/83/84 80/74/74 89/85/85
f 80/74/74 81/75/75 89/85/85
f 89/85/85 81/75/75 90/86/86
f 81/75/75 82/76/76 90/86/86
f 90/86/86 82/76/76 91/87/87
f 82/76/76 83/77/77 91/87/87
f 91/87/87 83/77/77 92/88/88
f 83/77/77 75/68/67 92/88/88
f 92/88/88 75/68/67 84/79/78
f 84/79/78 85/78/79 93/90/89
f 93/90/89 85/78/79 94/89/90
f 85/78/79 86/80/80 94/89/90
f 94/89/90 86/80/80 95/91/91
f 86/80/80 87/81/81 95/91/91
f 95/91/91 87/81/81 96/92/92
f 87/81/81 2/82/82 96/92/92
f 96/92/92 2/82/82 1/93/93
f 18/84/83 88/83/84 19/95/94
f 19/95/94 88/83/84 97/94/95
f 88/83/84 89/85/85 97/94/95
f 97/94/95 89/85/85 98/96/96
f 89/85/85 90/86/86 98/96/96
f 98/96/96 90/86/86 99/97/97
f 90/86/86 91/87/87 99/97/97
f 99/97/97 91/87/87 100/98/98
f 91/87/87 92/88/88 100/98/98
f 100/98/98 92/88/88 101/99/99
f 92/88/88 84/79/78 101/99/99
f 101/99/99 84/79/78 93/90/89
f 22/2/2 21/1/1 10/100/100
f 23/5/5 22/2/2 10/100/100
f 24/7/7 23/5/5 10/100/100
f 9/9/9 24/7/7 10/100/100
f 25/12/12 11/11/11 10/100/100
f 26/15/15 25/12/12 10/100/100
f 27/17/17 26/15/15 10/100/100
f 28/19/19 27/17/17 10/100/100
f 29/21/21 28/19/19 10/100/100
f 21/1/1 29/21/21 10/100/100
f 93/90/89 94/89/90 20/101/101
f 94/89/90 95/91/91 20/101/101
f 95/91/91 96/92/92 20/101/101
f 96/92/92 1/93/93 20/101/101
f 19/95/94 97/94/95 20/101/101
f 97/94/95 98/96/96 20/101/101
f 98/96/96 99/97/97 20/101/101
f 99/97/97 100/98/98 20/101/101
f 100/98/98 101/99/99 20/101/101
f 101/99/99 93/90/89 20/101/101
