# This file uses centimeters as units for non-parametric coordinates.

mtllib Pad_Cylinder.mtl
g default
v -0.500000 -0.475529 -0.154509
v -0.500000 -0.404509 -0.293893
v -0.500000 -0.293893 -0.404509
v -0.500000 -0.154509 -0.475529
v -0.500000 -0.000000 -0.500000
v -0.500000 0.154509 -0.475528
v -0.500000 0.293893 -0.404509
v -0.500000 0.404509 -0.293893
v -0.500000 0.475528 -0.154509
v -0.500000 0.500000 0.000000
v -0.500000 0.475528 0.154509
v -0.500000 0.404509 0.293893
v -0.500000 0.293893 0.404509
v -0.500000 0.154509 0.475528
v -0.500000 0.000000 0.500000
v -0.500000 -0.154508 0.475528
v -0.500000 -0.293893 0.404509
v -0.500000 -0.404509 0.293893
v -0.500000 -0.475528 0.154509
v -0.500000 -0.500000 0.000000
v 0.500000 -0.475529 -0.154509
v 0.500000 -0.404509 -0.293893
v 0.500000 -0.293893 -0.404509
v 0.500000 -0.154509 -0.475529
v 0.500000 0.000000 -0.500000
v 0.500000 0.154509 -0.475528
v 0.500000 0.293893 -0.404509
v 0.500000 0.404509 -0.293893
v 0.500000 0.475528 -0.154509
v 0.500000 0.500000 0.000000
v 0.500000 0.475528 0.154509
v 0.500000 0.404509 0.293893
v 0.500000 0.293893 0.404509
v 0.500000 0.154509 0.475528
v 0.500000 0.000000 0.500000
v 0.500000 -0.154508 0.475528
v 0.500000 -0.293893 0.404509
v 0.500000 -0.404509 0.293893
v 0.500000 -0.475528 0.154509
v 0.500000 -0.500000 0.000000
v -0.500000 -0.000000 0.000000
v 0.500000 0.000000 0.000000
vt 0.935134 0.693880
vt 0.981784 0.602325
vt 0.669432 0.500836
vt 0.862476 0.766539
vt 0.770921 0.813188
vt 0.669432 0.829262
vt 0.567942 0.813188
vt 0.476388 0.766539
vt 0.403729 0.693880
vt 0.357080 0.602325
vt 0.341006 0.500836
vt 0.357080 0.399347
vt 0.403729 0.307792
vt 0.476388 0.235134
vt 0.567942 0.188485
vt 0.669432 0.172410
vt 0.770921 0.188485
vt 0.862476 0.235134
vt 0.935134 0.307792
vt 0.981784 0.399347
vt 0.003493 0.997700
vt 0.003493 0.948136
vt 0.003493 0.898573
vt 0.003493 0.849009
vt 0.003493 0.799445
vt 0.003493 0.749882
vt 0.003493 0.700318
vt 0.003493 0.650755
vt 0.003493 0.601191
vt 0.003493 0.551627
vt 0.003493 0.502064
vt 0.003493 0.452500
vt 0.003493 0.402937
vt 0.003493 0.353373
vt 0.003493 0.303810
vt 0.003493 0.254246
vt 0.003493 0.204682
vt 0.003493 0.155119
vt 0.003493 0.105555
vt 0.003493 0.055992
vt 0.003493 0.006428
vt 0.335703 0.997700
vt 0.335703 0.948136
vt 0.335703 0.898572
vt 0.335703 0.849009
vt 0.335703 0.799445
vt 0.335703 0.749882
vt 0.335703 0.700318
vt 0.335703 0.650755
vt 0.335703 0.601191
vt 0.335703 0.551627
vt 0.335703 0.502064
vt 0.335703 0.452500
vt 0.335703 0.402937
vt 0.335703 0.353373
vt 0.335703 0.303810
vt 0.335703 0.254246
vt 0.335703 0.204682
vt 0.335703 0.155119
vt 0.335703 0.105555
vt 0.335703 0.055992
vt 0.335703 0.006428
vt 0.997858 0.500836
vt 0.981784 0.602325
vt 0.935134 0.693880
vt 0.669432 0.500836
vt 0.862476 0.766539
vt 0.770921 0.813188
vt 0.669432 0.829262
vt 0.567942 0.813188
vt 0.476388 0.766539
vt 0.403729 0.693880
vt 0.357080 0.602325
vt 0.341006 0.500836
vt 0.357080 0.399347
vt 0.403729 0.307792
vt 0.476388 0.235134
vt 0.567942 0.188485
vt 0.669432 0.172410
vt 0.770921 0.188485
vt 0.862476 0.235134
vt 0.935134 0.307792
vt 0.981784 0.399347
vt 0.997858 0.500836
vn 0.000000 -0.951057 -0.309016
vn 0.000000 -0.809017 -0.587785
vn 0.000000 -0.951057 -0.309016
vn 0.000000 -0.809017 -0.587785
vn 0.000000 -0.587785 -0.809017
vn 0.000000 -0.587785 -0.809017
vn 0.000000 -0.309017 -0.951057
vn 0.000000 -0.309017 -0.951057
vn -0.000000 0.000000 -1.000000
vn -0.000000 0.000000 -1.000000
vn -0.000000 0.309017 -0.951057
vn 0.000000 0.309017 -0.951056
vn 0.000000 0.587785 -0.809017
vn 0.000000 0.587785 -0.809017
vn 0.000000 0.809017 -0.587785
vn 0.000000 0.809017 -0.587785
vn 0.000000 0.951057 -0.309017
vn 0.000000 0.951057 -0.309017
vn 0.000000 1.000000 0.000000
vn 0.000000 1.000000 -0.000000
vn 0.000000 0.951056 0.309017
vn 0.000000 0.951057 0.309017
vn 0.000000 0.809017 0.587785
vn 0.000000 0.809017 0.587785
vn 0.000000 0.587785 0.809017
vn 0.000000 0.587785 0.809017
vn 0.000000 0.309017 0.951057
vn 0.000000 0.309017 0.951057
vn 0.000000 -0.000000 1.000000
vn 0.000000 -0.000000 1.000000
vn 0.000000 -0.309017 0.951057
vn 0.000000 -0.309017 0.951057
vn 0.000000 -0.587785 0.809017
vn 0.000000 -0.587785 0.809017
vn 0.000000 -0.809017 0.587785
vn 0.000000 -0.809017 0.587785
vn 0.000000 -0.951057 0.309017
vn 0.000000 -0.951057 0.309017
vn 0.000000 -1.000000 0.000001
vn 0.000000 -1.000000 0.000001
vn -1.000000 0.000000 0.000000
vn -1.000000 0.000000 0.000000
vn -1.000000 0.000000 0.000000
vn -1.000000 0.000000 0.000000
vn -1.000000 0.000000 0.000000
vn -1.000000 0.000000 0.000000
vn -1.000000 0.000000 0.000000
vn -1.000000 0.000000 0.000000
vn -1.000000 0.000000 0.000000
vn -1.000000 0.000000 0.000000
vn -1.000000 0.000000 0.000000
vn -1.000000 0.000000 0.000000
vn -1.000000 0.000000 0.000000
vn -1.000000 0.000000 0.000000
vn -1.000000 0.000000 0.000000
vn -1.000000 0.000000 0.000000
vn -1.000000 0.000000 0.000000
vn -1.000000 0.000000 0.000000
vn -1.000000 0.000000 0.000000
vn -1.000000 0.000000 0.000000
vn -1.000000 0.000000 0.000000
vn 1.000000 0.000000 0.000000
vn 1.000000 0.000000 0.000000
vn 1.000000 0.000000 0.000000
vn 1.000000 0.000000 0.000000
vn 1.000000 0.000000 0.000000
vn 1.000000 0.000000 0.000000
vn 1.000000 0.000000 0.000000
vn 1.000000 0.000000 0.000000
vn 1.000000 0.000000 0.000000
vn 1.000000 0.000000 0.000000
vn 1.000000 0.000000 0.000000
vn 1.000000 0.000000 0.000000
vn 1.000000 0.000000 0.000000
vn 1.000000 0.000000 0.000000
vn 1.000000 0.000000 0.000000
vn 1.000000 0.000000 0.000000
vn 1.000000 0.000000 0.000000
vn 1.000000 0.000000 0.000000
vn 1.000000 0.000000 0.000000
vn 1.000000 0.000000 0.000000
vn 1.000000 0.000000 0.000000
s 1
usemtl lambert2SG
f 1/21/1 2/22/2 21/42/3
f 21/42/3 2/22/2 22/43/4
f 2/22/2 3/23/5 22/43/4
f 22/43/4 3/23/5 23/44/6
f 3/23/5 4/24/7 23/44/6
f 23/44/6 4/24/7 24/45/8
f 4/24/7 5/25/9 24/45/8
f 24/45/8 5/25/9 25/46/10
f 5/25/9 6/26/11 25/46/10
f 25/46/10 6/26/11 26/47/12
f 6/26/11 7/27/13 26/47/12
f 26/47/12 7/27/13 27/48/14
f 7/27/13 8/28/15 27/48/14
f 27/48/14 8/28/15 28/49/16
f 8/28/15 9/29/17 28/49/16
f 28/49/16 9/29/17 29/50/18
f 9/29/17 10/30/19 29/50/18
f 29/50/18 10/30/19 30/51/20
f 10/30/19 11/31/21 30/51/20
f 30/51/20 11/31/21 31/52/22
f 11/31/21 12/32/23 31/52/22
f 31/52/22 12/32/23 32/53/24
f 12/32/23 13/33/25 32/53/24
f 32/53/24 13/33/25 33/54/26
f 13/33/25 14/34/27 33/54/26
f 33/54/26 14/34/27 34/55/28
f 14/34/27 15/35/29 34/55/28
f 34/55/28 15/35/29 35/56/30
f 15/35/29 16/36/31 35/56/30
f 35/56/30 16/36/31 36/57/32
f 16/36/31 17/37/33 36/57/32
f 36/57/32 17/37/33 37/58/34
f 17/37/33 18/38/35 37/58/34
f 37/58/34 18/38/35 38/59/36
f 18/38/35 19/39/37 38/59/36
f 38/59/36 19/39/37 39/60/38
f 19/39/37 20/40/39 39/60/38
f 39/60/38 20/40/39 40/61/40
f 20/40/39 1/41/1 40/61/40
f 40/61/40 1/41/1 21/62/3
s 2
f 2/1/41 1/2/42 41/3/43
f 3/4/44 2/1/41 41/3/43
f 4/5/45 3/4/44 41/3/43
f 5/6/46 4/5/45 41/3/43
f 6/7/47 5/6/46 41/3/43
f 7/8/48 6/7/47 41/3/43
f 8/9/49 7/8/48 41/3/43
f 9/10/50 8/9/49 41/3/43
f 10/11/51 9/10/50 41/3/43
f 11/12/52 10/11/51 41/3/43
f 12/13/53 11/12/52 41/3/43
f 13/14/54 12/13/53 41/3/43
f 14/15/55 13/14/54 41/3/43
f 15/16/56 14/15/55 41/3/43
f 16/17/57 15/16/56 41/3/43
f 17/18/58 16/17/57 41/3/43
f 18/19/59 17/18/58 41/3/43
f 19/20/60 18/19/59 41/3/43
f 20/63/61 19/20/60 41/3/43
f 1/2/42 20/63/61 41/3/43
s 3
f 21/64/62 22/65/63 42/66/64
f 22/65/63 23/67/65 42/66/64
f 23/67/65 24/68/66 42/66/64
f 24/68/66 25/69/67 42/66/64
f 25/69/67 26/70/68 42/66/64
f 26/70/68 27/71/69 42/66/64
f 27/71/69 28/72/70 42/66/64
f 28/72/70 29/73/71 42/66/64
f 29/73/71 30/74/72 42/66/64
f 30/74/72 31/75/73 42/66/64
f 31/75/73 32/76/74 42/66/64
f 32/76/74 33/77/75 42/66/64
f 33/77/75 34/78/76 42/66/64
f 34/78/76 35/79/77 42/66/64
f 35/79/77 36/80/78 42/66/64
f 36/80/78 37/81/79 42/66/64
f 37/81/79 38/82/80 42/66/64
f 38/82/80 39/83/81 42/66/64
f 39/83/81 40/84/82 42/66/64
f 40/84/82 21/64/62 42/66/64